<?xml version="1.0" standalone="no"?><!DOCTYPE svg PUBLIC "-//W3C//DTD SVG 1.1//EN" "http://www.w3.org/Graphics/SVG/1.1/DTD/svg11.dtd"><svg t="1569059584064" class="icon" viewBox="0 0 1024 1024" version="1.1" xmlns="http://www.w3.org/2000/svg" p-id="2701" xmlns:xlink="http://www.w3.org/1999/xlink" width="200" height="200"><defs><style type="text/css"></style></defs><path d="M660.138667 696.558933a78.779733 78.779733 0 1 1-63.146667 51.746134h-201.5232a78.779733 78.779733 0 1 1-120.763733-37.341867L177.152 223.197867H128.682667A26.282667 26.282667 0 1 1 128.682667 170.666667h69.973333a26.282667 26.282667 0 0 1 25.770667 21.0944l23.790933 118.920533H758.784c17.066667 0 29.627733 16.042667 25.4976 32.631467l-70.0416 280.064a26.282667 26.282667 0 0 1-25.463467 19.899733H314.709333l10.513067 52.497067h328.567467a26.282667 26.282667 0 0 1 6.3488 0.785066zM258.730667 363.2128l45.499733 227.5328h364.066133l56.866134-227.5328H258.730667z m62.464 437.589333a26.282667 26.282667 0 1 0 0-52.497066 26.282667 26.282667 0 0 0 0 52.497066z m350.071466 0a26.282667 26.282667 0 1 0 0-52.497066 26.282667 26.282667 0 0 0 0 52.497066z" fill="#999999" p-id="2702"></path></svg>